<svg width="322" height="330" viewBox="0 0 322 330" fill="none" xmlns="http://www.w3.org/2000/svg">
<path d="M149.22 31.4286C149.22 14.0711 163.284 0 180.634 0H290.585C307.935 0 322 14.0711 322 31.4286V141.429C322 158.786 307.935 172.857 290.585 172.857H180.634C163.284 172.857 149.22 158.786 149.22 141.429V31.4286Z" fill="#FFDD56"/>
<path d="M0 188.571C0 171.214 14.0648 157.143 31.4146 157.143H141.366C158.716 157.143 172.78 171.214 172.78 188.571V298.571C172.78 315.929 158.716 330 141.366 330H31.4146C14.0648 330 0 315.929 0 298.571V188.571Z" fill="#FFDD56"/>
<path d="M157.073 133.571L121.732 184.643L157.073 204.286L192.415 153.214L157.073 133.571Z" fill="#FFDD56"/>
</svg>
