<svg width="15" height="16" viewBox="0 0 15 16" fill="none" xmlns="http://www.w3.org/2000/svg">
<path d="M6.95122 1.52381C6.95122 0.682233 7.60641 0 8.41463 0H13.5366C14.3448 0 15 0.682233 15 1.52381V6.85714C15 7.69872 14.3448 8.38095 13.5366 8.38095H8.41463C7.60641 8.38095 6.95122 7.69872 6.95122 6.85714V1.52381Z" fill="#FBD34C"/>
<path d="M0 9.14286C0 8.30128 0.655193 7.61905 1.46341 7.61905H6.58537C7.39359 7.61905 8.04878 8.30128 8.04878 9.14286V14.4762C8.04878 15.3178 7.39359 16 6.58537 16H1.46341C0.655193 16 0 15.3178 0 14.4762V9.14286Z" fill="#FBD34C"/>
<path d="M7.31707 6.47619L5.67073 8.95238L7.31707 9.90476L8.96342 7.42857L7.31707 6.47619Z" fill="#FBD34C"/>
</svg>
