<svg xmlns="http://www.w3.org/2000/svg" width="80" height="80" viewBox="0 0 80 80" fill="none"> <g clip-path="url(#clip0_356_318)"> <path fill-rule="evenodd" clip-rule="evenodd" d="M6.67171 6.67171H73.3283V73.3283H6.67171V6.67171ZM60.0857 17.4553H47.2663V20.3175H60.0857V17.4553ZM60.0857 24.389H47.2663V27.2512H60.0857V24.389ZM60.0857 31.4437H47.2663V34.3059H60.0857V31.4437ZM19.9547 17.1731V34.326H23.1796V24.3084L34.5881 34.6485V17.4956H31.3631V27.6543L19.9547 17.1731ZM20.0353 60.9927H24.0665L26.2434 57.9693L24.2882 55.3288L20.0353 60.9927ZM19.9345 44.1623L24.3285 50.0277L26.2635 47.3873L23.9456 44.1623H19.9345ZM30.2343 57.9693L32.4112 60.9927H36.4424L32.1895 55.3288L30.2343 57.9693ZM30.2343 47.3873L32.1693 50.0277L36.5634 44.1623H32.5523L30.2343 47.3873ZM55.2885 47.0043H60.0857V44.1421H47.226V47.0043H52.0635V60.9927H55.2885V47.0043Z" fill="#1F2937"></path> <path fill-rule="evenodd" clip-rule="evenodd" d="M0 80V0H80V80H0ZM3.36609 76.6339H76.6339V3.36609H3.36609V76.6339Z" fill="#1F2937"></path> </g> <defs> <clipPath id="clip0_356_318"> <rect width="80" height="80" fill="white"></rect> </clipPath> </defs> </svg> 