<svg width="63" height="42" viewBox="0 0 63 42" fill="none" xmlns="http://www.w3.org/2000/svg">
<path d="M19 4C19 1.79086 20.7909 0 23 0H37C39.2091 0 41 1.79086 41 4V18C41 20.2091 39.2091 22 37 22H23C20.7909 22 19 20.2091 19 18V4Z" fill="#202938"/>
<path d="M0 24C0 21.7909 1.79086 20 4 20H18C20.2091 20 22 21.7909 22 24V38C22 40.2091 20.2091 42 18 42H4C1.79086 42 0 40.2091 0 38V24Z" fill="#202938"/>
<path d="M20 17L15.5 23.5L20 26L24.5 19.5L20 17Z" fill="#202938"/>
<rect x="41" y="20" width="22" height="22" rx="4" fill="#202938"/>
</svg>
