<svg width="85" height="42" viewBox="0 0 85 42" fill="none" xmlns="http://www.w3.org/2000/svg">
<path d="M44 4C44 1.79086 42.2091 0 40 0H26C23.7909 0 22 1.79086 22 4V18C22 20.2091 23.7909 22 26 22H40C42.2091 22 44 20.2091 44 18V4Z" fill="#FBD34C"/>
<path d="M63 24C63 21.7909 61.2091 20 59 20H45C42.7909 20 41 21.7909 41 24V38C41 40.2091 42.7909 42 45 42H59C61.2091 42 63 40.2091 63 38V24Z" fill="#FBD34C"/>
<path d="M43 17L47.5 23.5L43 26L38.5 19.5L43 17Z" fill="#FBD34C"/>
<rect y="20" width="22" height="22" rx="4" fill="#FBD34C"/>
<rect x="63" width="22" height="22" rx="4" fill="#FBD34C"/>
</svg>
