<svg width="104" height="42" viewBox="0 0 104 42" fill="none" xmlns="http://www.w3.org/2000/svg">
<path d="M44 4C44 1.79086 42.2091 0 40 0H26C23.7909 0 22 1.79086 22 4V18C22 20.2091 23.7909 22 26 22H40C42.2091 22 44 20.2091 44 18V4Z" fill="#FBD34C"/>
<path d="M63 24C63 21.7909 61.2091 20 59 20H45C42.7909 20 41 21.7909 41 24V38C41 40.2091 42.7909 42 45 42H59C61.2091 42 63 40.2091 63 38V24Z" fill="#FBD34C"/>
<path d="M43 17L47.5 23.5L43 26L38.5 19.5L43 17Z" fill="#FBD34C"/>
<path d="M85 4C85 1.79086 83.2091 0 81 0H67C64.7909 0 63 1.79086 63 4V18C63 20.2091 64.7909 22 67 22H81C83.2091 22 85 20.2091 85 18V4Z" fill="#FBD34C"/>
<path d="M104 24C104 21.7909 102.209 20 100 20H86C83.7909 20 82 21.7909 82 24V38C82 40.2091 83.7909 42 86 42H100C102.209 42 104 40.2091 104 38V24Z" fill="#FBD34C"/>
<path d="M84 17L88.5 23.5L84 26L79.5 19.5L84 17Z" fill="#FBD34C"/>
<rect y="20" width="22" height="22" rx="4" fill="#FBD34C"/>
</svg>
