<svg width="16" height="16" viewBox="0 0 16 16" fill="none" xmlns="http://www.w3.org/2000/svg">
<path d="M7.41463 1.52381C7.41463 0.682233 8.11351 0 8.97561 0H14.439C15.3011 0 16 0.682233 16 1.52381V6.85714C16 7.69872 15.3011 8.38095 14.439 8.38095H8.97561C8.11351 8.38095 7.41463 7.69872 7.41463 6.85714V1.52381Z" fill="#FBD34C"/>
<path d="M0 9.14286C0 8.30128 0.698873 7.61905 1.56098 7.61905H7.02439C7.88649 7.61905 8.58537 8.30128 8.58537 9.14286V14.4762C8.58537 15.3178 7.88649 16 7.02439 16H1.56098C0.698873 16 0 15.3178 0 14.4762V9.14286Z" fill="#FBD34C"/>
<path d="M7.80488 6.47619L6.04878 8.95238L7.80488 9.90476L9.56098 7.42857L7.80488 6.47619Z" fill="#FBD34C"/>
</svg>
