<svg width="3608" height="42" viewBox="0 0 3608 42" fill="none" xmlns="http://www.w3.org/2000/svg">
<path d="M19 4C19 1.79086 20.7909 0 23 0H37C39.2091 0 41 1.79086 41 4V18C41 20.2091 39.2091 22 37 22H23C20.7909 22 19 20.2091 19 18V4Z" fill="#FBD34C"/>
<path d="M0 24C0 21.7909 1.79086 20 4 20H18C20.2091 20 22 21.7909 22 24V38C22 40.2091 20.2091 42 18 42H4C1.79086 42 0 40.2091 0 38V24Z" fill="#FBD34C"/>
<path d="M20 17L15.5 23.5L20 26L24.5 19.5L20 17Z" fill="#FBD34C"/>
<path d="M60 4C60 1.79086 61.7909 0 64 0H78C80.2091 0 82 1.79086 82 4V18C82 20.2091 80.2091 22 78 22H64C61.7909 22 60 20.2091 60 18V4Z" fill="#202938"/>
<path d="M41 24C41 21.7909 42.7909 20 45 20H59C61.2091 20 63 21.7909 63 24V38C63 40.2091 61.2091 42 59 42H45C42.7909 42 41 40.2091 41 38V24Z" fill="#202938"/>
<path d="M61 17L56.5 23.5L61 26L65.5 19.5L61 17Z" fill="#202938"/>
<path d="M101 4C101 1.79086 102.791 0 105 0H119C121.209 0 123 1.79086 123 4V18C123 20.2091 121.209 22 119 22H105C102.791 22 101 20.2091 101 18V4Z" fill="#FBD34C"/>
<path d="M82 24C82 21.7909 83.7909 20 86 20H100C102.209 20 104 21.7909 104 24V38C104 40.2091 102.209 42 100 42H86C83.7909 42 82 40.2091 82 38V24Z" fill="#FBD34C"/>
<path d="M102 17L97.5 23.5L102 26L106.5 19.5L102 17Z" fill="#FBD34C"/>
<path d="M142 4C142 1.79086 143.791 0 146 0H160C162.209 0 164 1.79086 164 4V18C164 20.2091 162.209 22 160 22H146C143.791 22 142 20.2091 142 18V4Z" fill="#202938"/>
<path d="M123 24C123 21.7909 124.791 20 127 20H141C143.209 20 145 21.7909 145 24V38C145 40.2091 143.209 42 141 42H127C124.791 42 123 40.2091 123 38V24Z" fill="#202938"/>
<path d="M143 17L138.5 23.5L143 26L147.5 19.5L143 17Z" fill="#202938"/>
<path d="M183 4C183 1.79086 184.791 0 187 0H201C203.209 0 205 1.79086 205 4V18C205 20.2091 203.209 22 201 22H187C184.791 22 183 20.2091 183 18V4Z" fill="#FBD34C"/>
<path d="M164 24C164 21.7909 165.791 20 168 20H182C184.209 20 186 21.7909 186 24V38C186 40.2091 184.209 42 182 42H168C165.791 42 164 40.2091 164 38V24Z" fill="#FBD34C"/>
<path d="M184 17L179.5 23.5L184 26L188.5 19.5L184 17Z" fill="#FBD34C"/>
<path d="M224 4C224 1.79086 225.791 0 228 0H242C244.209 0 246 1.79086 246 4V18C246 20.2091 244.209 22 242 22H228C225.791 22 224 20.2091 224 18V4Z" fill="#202938"/>
<path d="M205 24C205 21.7909 206.791 20 209 20H223C225.209 20 227 21.7909 227 24V38C227 40.2091 225.209 42 223 42H209C206.791 42 205 40.2091 205 38V24Z" fill="#202938"/>
<path d="M225 17L220.5 23.5L225 26L229.5 19.5L225 17Z" fill="#202938"/>
<path d="M265 4C265 1.79086 266.791 0 269 0H283C285.209 0 287 1.79086 287 4V18C287 20.2091 285.209 22 283 22H269C266.791 22 265 20.2091 265 18V4Z" fill="#FBD34C"/>
<path d="M246 24C246 21.7909 247.791 20 250 20H264C266.209 20 268 21.7909 268 24V38C268 40.2091 266.209 42 264 42H250C247.791 42 246 40.2091 246 38V24Z" fill="#FBD34C"/>
<path d="M266 17L261.5 23.5L266 26L270.5 19.5L266 17Z" fill="#FBD34C"/>
<path d="M306 4C306 1.79086 307.791 0 310 0H324C326.209 0 328 1.79086 328 4V18C328 20.2091 326.209 22 324 22H310C307.791 22 306 20.2091 306 18V4Z" fill="#202938"/>
<path d="M287 24C287 21.7909 288.791 20 291 20H305C307.209 20 309 21.7909 309 24V38C309 40.2091 307.209 42 305 42H291C288.791 42 287 40.2091 287 38V24Z" fill="#202938"/>
<path d="M307 17L302.5 23.5L307 26L311.5 19.5L307 17Z" fill="#202938"/>
<path d="M347 4C347 1.79086 348.791 0 351 0H365C367.209 0 369 1.79086 369 4V18C369 20.2091 367.209 22 365 22H351C348.791 22 347 20.2091 347 18V4Z" fill="#FBD34C"/>
<path d="M328 24C328 21.7909 329.791 20 332 20H346C348.209 20 350 21.7909 350 24V38C350 40.2091 348.209 42 346 42H332C329.791 42 328 40.2091 328 38V24Z" fill="#FBD34C"/>
<path d="M348 17L343.5 23.5L348 26L352.5 19.5L348 17Z" fill="#FBD34C"/>
<path d="M388 4C388 1.79086 389.791 0 392 0H406C408.209 0 410 1.79086 410 4V18C410 20.2091 408.209 22 406 22H392C389.791 22 388 20.2091 388 18V4Z" fill="#202938"/>
<path d="M369 24C369 21.7909 370.791 20 373 20H387C389.209 20 391 21.7909 391 24V38C391 40.2091 389.209 42 387 42H373C370.791 42 369 40.2091 369 38V24Z" fill="#202938"/>
<path d="M389 17L384.5 23.5L389 26L393.5 19.5L389 17Z" fill="#202938"/>
<path d="M429 4C429 1.79086 430.791 0 433 0H447C449.209 0 451 1.79086 451 4V18C451 20.2091 449.209 22 447 22H433C430.791 22 429 20.2091 429 18V4Z" fill="#FBD34C"/>
<path d="M410 24C410 21.7909 411.791 20 414 20H428C430.209 20 432 21.7909 432 24V38C432 40.2091 430.209 42 428 42H414C411.791 42 410 40.2091 410 38V24Z" fill="#FBD34C"/>
<path d="M430 17L425.5 23.5L430 26L434.5 19.5L430 17Z" fill="#FBD34C"/>
<path d="M470 4C470 1.79086 471.791 0 474 0H488C490.209 0 492 1.79086 492 4V18C492 20.2091 490.209 22 488 22H474C471.791 22 470 20.2091 470 18V4Z" fill="#202938"/>
<path d="M451 24C451 21.7909 452.791 20 455 20H469C471.209 20 473 21.7909 473 24V38C473 40.2091 471.209 42 469 42H455C452.791 42 451 40.2091 451 38V24Z" fill="#202938"/>
<path d="M471 17L466.5 23.5L471 26L475.5 19.5L471 17Z" fill="#202938"/>
<path d="M511 4C511 1.79086 512.791 0 515 0H529C531.209 0 533 1.79086 533 4V18C533 20.2091 531.209 22 529 22H515C512.791 22 511 20.2091 511 18V4Z" fill="#FBD34C"/>
<path d="M492 24C492 21.7909 493.791 20 496 20H510C512.209 20 514 21.7909 514 24V38C514 40.2091 512.209 42 510 42H496C493.791 42 492 40.2091 492 38V24Z" fill="#FBD34C"/>
<path d="M512 17L507.5 23.5L512 26L516.5 19.5L512 17Z" fill="#FBD34C"/>
<path d="M552 4C552 1.79086 553.791 0 556 0H570C572.209 0 574 1.79086 574 4V18C574 20.2091 572.209 22 570 22H556C553.791 22 552 20.2091 552 18V4Z" fill="#202938"/>
<path d="M533 24C533 21.7909 534.791 20 537 20H551C553.209 20 555 21.7909 555 24V38C555 40.2091 553.209 42 551 42H537C534.791 42 533 40.2091 533 38V24Z" fill="#202938"/>
<path d="M553 17L548.5 23.5L553 26L557.5 19.5L553 17Z" fill="#202938"/>
<path d="M593 4C593 1.79086 594.791 0 597 0H611C613.209 0 615 1.79086 615 4V18C615 20.2091 613.209 22 611 22H597C594.791 22 593 20.2091 593 18V4Z" fill="#FBD34C"/>
<path d="M574 24C574 21.7909 575.791 20 578 20H592C594.209 20 596 21.7909 596 24V38C596 40.2091 594.209 42 592 42H578C575.791 42 574 40.2091 574 38V24Z" fill="#FBD34C"/>
<path d="M594 17L589.5 23.5L594 26L598.5 19.5L594 17Z" fill="#FBD34C"/>
<path d="M634 4C634 1.79086 635.791 0 638 0H652C654.209 0 656 1.79086 656 4V18C656 20.2091 654.209 22 652 22H638C635.791 22 634 20.2091 634 18V4Z" fill="#202938"/>
<path d="M615 24C615 21.7909 616.791 20 619 20H633C635.209 20 637 21.7909 637 24V38C637 40.2091 635.209 42 633 42H619C616.791 42 615 40.2091 615 38V24Z" fill="#202938"/>
<path d="M635 17L630.5 23.5L635 26L639.5 19.5L635 17Z" fill="#202938"/>
<path d="M675 4C675 1.79086 676.791 0 679 0H693C695.209 0 697 1.79086 697 4V18C697 20.2091 695.209 22 693 22H679C676.791 22 675 20.2091 675 18V4Z" fill="#FBD34C"/>
<path d="M656 24C656 21.7909 657.791 20 660 20H674C676.209 20 678 21.7909 678 24V38C678 40.2091 676.209 42 674 42H660C657.791 42 656 40.2091 656 38V24Z" fill="#FBD34C"/>
<path d="M676 17L671.5 23.5L676 26L680.5 19.5L676 17Z" fill="#FBD34C"/>
<path d="M716 4C716 1.79086 717.791 0 720 0H734C736.209 0 738 1.79086 738 4V18C738 20.2091 736.209 22 734 22H720C717.791 22 716 20.2091 716 18V4Z" fill="#202938"/>
<path d="M697 24C697 21.7909 698.791 20 701 20H715C717.209 20 719 21.7909 719 24V38C719 40.2091 717.209 42 715 42H701C698.791 42 697 40.2091 697 38V24Z" fill="#202938"/>
<path d="M717 17L712.5 23.5L717 26L721.5 19.5L717 17Z" fill="#202938"/>
<path d="M757 4C757 1.79086 758.791 0 761 0H775C777.209 0 779 1.79086 779 4V18C779 20.2091 777.209 22 775 22H761C758.791 22 757 20.2091 757 18V4Z" fill="#FBD34C"/>
<path d="M738 24C738 21.7909 739.791 20 742 20H756C758.209 20 760 21.7909 760 24V38C760 40.2091 758.209 42 756 42H742C739.791 42 738 40.2091 738 38V24Z" fill="#FBD34C"/>
<path d="M758 17L753.5 23.5L758 26L762.5 19.5L758 17Z" fill="#FBD34C"/>
<path d="M798 4C798 1.79086 799.791 0 802 0H816C818.209 0 820 1.79086 820 4V18C820 20.2091 818.209 22 816 22H802C799.791 22 798 20.2091 798 18V4Z" fill="#202938"/>
<path d="M779 24C779 21.7909 780.791 20 783 20H797C799.209 20 801 21.7909 801 24V38C801 40.2091 799.209 42 797 42H783C780.791 42 779 40.2091 779 38V24Z" fill="#202938"/>
<path d="M799 17L794.5 23.5L799 26L803.5 19.5L799 17Z" fill="#202938"/>
<path d="M839 4C839 1.79086 840.791 0 843 0H857C859.209 0 861 1.79086 861 4V18C861 20.2091 859.209 22 857 22H843C840.791 22 839 20.2091 839 18V4Z" fill="#FBD34C"/>
<path d="M820 24C820 21.7909 821.791 20 824 20H838C840.209 20 842 21.7909 842 24V38C842 40.2091 840.209 42 838 42H824C821.791 42 820 40.2091 820 38V24Z" fill="#FBD34C"/>
<path d="M840 17L835.5 23.5L840 26L844.5 19.5L840 17Z" fill="#FBD34C"/>
<path d="M880 4C880 1.79086 881.791 0 884 0H898C900.209 0 902 1.79086 902 4V18C902 20.2091 900.209 22 898 22H884C881.791 22 880 20.2091 880 18V4Z" fill="#202938"/>
<path d="M861 24C861 21.7909 862.791 20 865 20H879C881.209 20 883 21.7909 883 24V38C883 40.2091 881.209 42 879 42H865C862.791 42 861 40.2091 861 38V24Z" fill="#202938"/>
<path d="M881 17L876.5 23.5L881 26L885.5 19.5L881 17Z" fill="#202938"/>
<path d="M921 4C921 1.79086 922.791 0 925 0H939C941.209 0 943 1.79086 943 4V18C943 20.2091 941.209 22 939 22H925C922.791 22 921 20.2091 921 18V4Z" fill="#FBD34C"/>
<path d="M902 24C902 21.7909 903.791 20 906 20H920C922.209 20 924 21.7909 924 24V38C924 40.2091 922.209 42 920 42H906C903.791 42 902 40.2091 902 38V24Z" fill="#FBD34C"/>
<path d="M922 17L917.5 23.5L922 26L926.5 19.5L922 17Z" fill="#FBD34C"/>
<path d="M962 4C962 1.79086 963.791 0 966 0H980C982.209 0 984 1.79086 984 4V18C984 20.2091 982.209 22 980 22H966C963.791 22 962 20.2091 962 18V4Z" fill="#202938"/>
<path d="M943 24C943 21.7909 944.791 20 947 20H961C963.209 20 965 21.7909 965 24V38C965 40.2091 963.209 42 961 42H947C944.791 42 943 40.2091 943 38V24Z" fill="#202938"/>
<path d="M963 17L958.5 23.5L963 26L967.5 19.5L963 17Z" fill="#202938"/>
<path d="M1003 4C1003 1.79086 1004.79 0 1007 0H1021C1023.21 0 1025 1.79086 1025 4V18C1025 20.2091 1023.21 22 1021 22H1007C1004.79 22 1003 20.2091 1003 18V4Z" fill="#FBD34C"/>
<path d="M984 24C984 21.7909 985.791 20 988 20H1002C1004.21 20 1006 21.7909 1006 24V38C1006 40.2091 1004.21 42 1002 42H988C985.791 42 984 40.2091 984 38V24Z" fill="#FBD34C"/>
<path d="M1004 17L999.5 23.5L1004 26L1008.5 19.5L1004 17Z" fill="#FBD34C"/>
<path d="M1044 4C1044 1.79086 1045.79 0 1048 0H1062C1064.21 0 1066 1.79086 1066 4V18C1066 20.2091 1064.21 22 1062 22H1048C1045.79 22 1044 20.2091 1044 18V4Z" fill="#202938"/>
<path d="M1025 24C1025 21.7909 1026.79 20 1029 20H1043C1045.21 20 1047 21.7909 1047 24V38C1047 40.2091 1045.21 42 1043 42H1029C1026.79 42 1025 40.2091 1025 38V24Z" fill="#202938"/>
<path d="M1045 17L1040.5 23.5L1045 26L1049.5 19.5L1045 17Z" fill="#202938"/>
<path d="M1085 4C1085 1.79086 1086.79 0 1089 0H1103C1105.21 0 1107 1.79086 1107 4V18C1107 20.2091 1105.21 22 1103 22H1089C1086.79 22 1085 20.2091 1085 18V4Z" fill="#FBD34C"/>
<path d="M1066 24C1066 21.7909 1067.79 20 1070 20H1084C1086.21 20 1088 21.7909 1088 24V38C1088 40.2091 1086.21 42 1084 42H1070C1067.79 42 1066 40.2091 1066 38V24Z" fill="#FBD34C"/>
<path d="M1086 17L1081.5 23.5L1086 26L1090.5 19.5L1086 17Z" fill="#FBD34C"/>
<path d="M1126 4C1126 1.79086 1127.79 0 1130 0H1144C1146.21 0 1148 1.79086 1148 4V18C1148 20.2091 1146.21 22 1144 22H1130C1127.79 22 1126 20.2091 1126 18V4Z" fill="#202938"/>
<path d="M1107 24C1107 21.7909 1108.79 20 1111 20H1125C1127.21 20 1129 21.7909 1129 24V38C1129 40.2091 1127.21 42 1125 42H1111C1108.79 42 1107 40.2091 1107 38V24Z" fill="#202938"/>
<path d="M1127 17L1122.5 23.5L1127 26L1131.5 19.5L1127 17Z" fill="#202938"/>
<path d="M1167 4C1167 1.79086 1168.79 0 1171 0H1185C1187.21 0 1189 1.79086 1189 4V18C1189 20.2091 1187.21 22 1185 22H1171C1168.79 22 1167 20.2091 1167 18V4Z" fill="#FBD34C"/>
<path d="M1148 24C1148 21.7909 1149.79 20 1152 20H1166C1168.21 20 1170 21.7909 1170 24V38C1170 40.2091 1168.21 42 1166 42H1152C1149.79 42 1148 40.2091 1148 38V24Z" fill="#FBD34C"/>
<path d="M1168 17L1163.5 23.5L1168 26L1172.5 19.5L1168 17Z" fill="#FBD34C"/>
<path d="M1208 4C1208 1.79086 1209.79 0 1212 0H1226C1228.21 0 1230 1.79086 1230 4V18C1230 20.2091 1228.21 22 1226 22H1212C1209.79 22 1208 20.2091 1208 18V4Z" fill="#202938"/>
<path d="M1189 24C1189 21.7909 1190.79 20 1193 20H1207C1209.21 20 1211 21.7909 1211 24V38C1211 40.2091 1209.21 42 1207 42H1193C1190.79 42 1189 40.2091 1189 38V24Z" fill="#202938"/>
<path d="M1209 17L1204.5 23.5L1209 26L1213.5 19.5L1209 17Z" fill="#202938"/>
<path d="M1249 4C1249 1.79086 1250.79 0 1253 0H1267C1269.21 0 1271 1.79086 1271 4V18C1271 20.2091 1269.21 22 1267 22H1253C1250.79 22 1249 20.2091 1249 18V4Z" fill="#FBD34C"/>
<path d="M1230 24C1230 21.7909 1231.79 20 1234 20H1248C1250.21 20 1252 21.7909 1252 24V38C1252 40.2091 1250.21 42 1248 42H1234C1231.79 42 1230 40.2091 1230 38V24Z" fill="#FBD34C"/>
<path d="M1250 17L1245.5 23.5L1250 26L1254.5 19.5L1250 17Z" fill="#FBD34C"/>
<path d="M1290 4C1290 1.79086 1291.79 0 1294 0H1308C1310.21 0 1312 1.79086 1312 4V18C1312 20.2091 1310.21 22 1308 22H1294C1291.79 22 1290 20.2091 1290 18V4Z" fill="#202938"/>
<path d="M1271 24C1271 21.7909 1272.79 20 1275 20H1289C1291.21 20 1293 21.7909 1293 24V38C1293 40.2091 1291.21 42 1289 42H1275C1272.79 42 1271 40.2091 1271 38V24Z" fill="#202938"/>
<path d="M1291 17L1286.5 23.5L1291 26L1295.5 19.5L1291 17Z" fill="#202938"/>
<path d="M1331 4C1331 1.79086 1332.79 0 1335 0H1349C1351.21 0 1353 1.79086 1353 4V18C1353 20.2091 1351.21 22 1349 22H1335C1332.79 22 1331 20.2091 1331 18V4Z" fill="#FBD34C"/>
<path d="M1312 24C1312 21.7909 1313.79 20 1316 20H1330C1332.21 20 1334 21.7909 1334 24V38C1334 40.2091 1332.21 42 1330 42H1316C1313.79 42 1312 40.2091 1312 38V24Z" fill="#FBD34C"/>
<path d="M1332 17L1327.5 23.5L1332 26L1336.5 19.5L1332 17Z" fill="#FBD34C"/>
<path d="M1372 4C1372 1.79086 1373.79 0 1376 0H1390C1392.21 0 1394 1.79086 1394 4V18C1394 20.2091 1392.21 22 1390 22H1376C1373.79 22 1372 20.2091 1372 18V4Z" fill="#202938"/>
<path d="M1353 24C1353 21.7909 1354.79 20 1357 20H1371C1373.21 20 1375 21.7909 1375 24V38C1375 40.2091 1373.21 42 1371 42H1357C1354.79 42 1353 40.2091 1353 38V24Z" fill="#202938"/>
<path d="M1373 17L1368.5 23.5L1373 26L1377.5 19.5L1373 17Z" fill="#202938"/>
<path d="M1413 4C1413 1.79086 1414.79 0 1417 0H1431C1433.21 0 1435 1.79086 1435 4V18C1435 20.2091 1433.21 22 1431 22H1417C1414.79 22 1413 20.2091 1413 18V4Z" fill="#FBD34C"/>
<path d="M1394 24C1394 21.7909 1395.79 20 1398 20H1412C1414.21 20 1416 21.7909 1416 24V38C1416 40.2091 1414.21 42 1412 42H1398C1395.79 42 1394 40.2091 1394 38V24Z" fill="#FBD34C"/>
<path d="M1414 17L1409.5 23.5L1414 26L1418.5 19.5L1414 17Z" fill="#FBD34C"/>
<path d="M1454 4C1454 1.79086 1455.79 0 1458 0H1472C1474.21 0 1476 1.79086 1476 4V18C1476 20.2091 1474.21 22 1472 22H1458C1455.79 22 1454 20.2091 1454 18V4Z" fill="#202938"/>
<path d="M1435 24C1435 21.7909 1436.79 20 1439 20H1453C1455.21 20 1457 21.7909 1457 24V38C1457 40.2091 1455.21 42 1453 42H1439C1436.79 42 1435 40.2091 1435 38V24Z" fill="#202938"/>
<path d="M1455 17L1450.5 23.5L1455 26L1459.5 19.5L1455 17Z" fill="#202938"/>
<path d="M1495 4C1495 1.79086 1496.79 0 1499 0H1513C1515.21 0 1517 1.79086 1517 4V18C1517 20.2091 1515.21 22 1513 22H1499C1496.79 22 1495 20.2091 1495 18V4Z" fill="#FBD34C"/>
<path d="M1476 24C1476 21.7909 1477.79 20 1480 20H1494C1496.21 20 1498 21.7909 1498 24V38C1498 40.2091 1496.21 42 1494 42H1480C1477.79 42 1476 40.2091 1476 38V24Z" fill="#FBD34C"/>
<path d="M1496 17L1491.5 23.5L1496 26L1500.5 19.5L1496 17Z" fill="#FBD34C"/>
<path d="M1536 4C1536 1.79086 1537.79 0 1540 0H1554C1556.21 0 1558 1.79086 1558 4V18C1558 20.2091 1556.21 22 1554 22H1540C1537.79 22 1536 20.2091 1536 18V4Z" fill="#202938"/>
<path d="M1517 24C1517 21.7909 1518.79 20 1521 20H1535C1537.21 20 1539 21.7909 1539 24V38C1539 40.2091 1537.21 42 1535 42H1521C1518.79 42 1517 40.2091 1517 38V24Z" fill="#202938"/>
<path d="M1537 17L1532.5 23.5L1537 26L1541.5 19.5L1537 17Z" fill="#202938"/>
<path d="M1577 4C1577 1.79086 1578.79 0 1581 0H1595C1597.21 0 1599 1.79086 1599 4V18C1599 20.2091 1597.21 22 1595 22H1581C1578.79 22 1577 20.2091 1577 18V4Z" fill="#FBD34C"/>
<path d="M1558 24C1558 21.7909 1559.79 20 1562 20H1576C1578.21 20 1580 21.7909 1580 24V38C1580 40.2091 1578.21 42 1576 42H1562C1559.79 42 1558 40.2091 1558 38V24Z" fill="#FBD34C"/>
<path d="M1578 17L1573.5 23.5L1578 26L1582.5 19.5L1578 17Z" fill="#FBD34C"/>
<path d="M1618 4C1618 1.79086 1619.79 0 1622 0H1636C1638.21 0 1640 1.79086 1640 4V18C1640 20.2091 1638.21 22 1636 22H1622C1619.79 22 1618 20.2091 1618 18V4Z" fill="#202938"/>
<path d="M1599 24C1599 21.7909 1600.79 20 1603 20H1617C1619.21 20 1621 21.7909 1621 24V38C1621 40.2091 1619.21 42 1617 42H1603C1600.79 42 1599 40.2091 1599 38V24Z" fill="#202938"/>
<path d="M1619 17L1614.5 23.5L1619 26L1623.5 19.5L1619 17Z" fill="#202938"/>
<path d="M1659 4C1659 1.79086 1660.79 0 1663 0H1677C1679.21 0 1681 1.79086 1681 4V18C1681 20.2091 1679.21 22 1677 22H1663C1660.79 22 1659 20.2091 1659 18V4Z" fill="#FBD34C"/>
<path d="M1640 24C1640 21.7909 1641.79 20 1644 20H1658C1660.21 20 1662 21.7909 1662 24V38C1662 40.2091 1660.21 42 1658 42H1644C1641.79 42 1640 40.2091 1640 38V24Z" fill="#FBD34C"/>
<path d="M1660 17L1655.5 23.5L1660 26L1664.5 19.5L1660 17Z" fill="#FBD34C"/>
<path d="M1700 4C1700 1.79086 1701.79 0 1704 0H1718C1720.21 0 1722 1.79086 1722 4V18C1722 20.2091 1720.21 22 1718 22H1704C1701.79 22 1700 20.2091 1700 18V4Z" fill="#202938"/>
<path d="M1681 24C1681 21.7909 1682.79 20 1685 20H1699C1701.21 20 1703 21.7909 1703 24V38C1703 40.2091 1701.21 42 1699 42H1685C1682.79 42 1681 40.2091 1681 38V24Z" fill="#202938"/>
<path d="M1701 17L1696.5 23.5L1701 26L1705.5 19.5L1701 17Z" fill="#202938"/>
<path d="M1741 4C1741 1.79086 1742.79 0 1745 0H1759C1761.21 0 1763 1.79086 1763 4V18C1763 20.2091 1761.21 22 1759 22H1745C1742.79 22 1741 20.2091 1741 18V4Z" fill="#FBD34C"/>
<path d="M1722 24C1722 21.7909 1723.79 20 1726 20H1740C1742.21 20 1744 21.7909 1744 24V38C1744 40.2091 1742.21 42 1740 42H1726C1723.79 42 1722 40.2091 1722 38V24Z" fill="#FBD34C"/>
<path d="M1742 17L1737.5 23.5L1742 26L1746.5 19.5L1742 17Z" fill="#FBD34C"/>
<path d="M1782 4C1782 1.79086 1783.79 0 1786 0H1800C1802.21 0 1804 1.79086 1804 4V18C1804 20.2091 1802.21 22 1800 22H1786C1783.79 22 1782 20.2091 1782 18V4Z" fill="#202938"/>
<path d="M1763 24C1763 21.7909 1764.79 20 1767 20H1781C1783.21 20 1785 21.7909 1785 24V38C1785 40.2091 1783.21 42 1781 42H1767C1764.79 42 1763 40.2091 1763 38V24Z" fill="#202938"/>
<path d="M1783 17L1778.5 23.5L1783 26L1787.5 19.5L1783 17Z" fill="#202938"/>
<path d="M1823 4C1823 1.79086 1824.79 0 1827 0H1841C1843.21 0 1845 1.79086 1845 4V18C1845 20.2091 1843.21 22 1841 22H1827C1824.79 22 1823 20.2091 1823 18V4Z" fill="#FBD34C"/>
<path d="M1804 24C1804 21.7909 1805.79 20 1808 20H1822C1824.21 20 1826 21.7909 1826 24V38C1826 40.2091 1824.21 42 1822 42H1808C1805.79 42 1804 40.2091 1804 38V24Z" fill="#FBD34C"/>
<path d="M1824 17L1819.5 23.5L1824 26L1828.5 19.5L1824 17Z" fill="#FBD34C"/>
<path d="M1864 4C1864 1.79086 1865.79 0 1868 0H1882C1884.21 0 1886 1.79086 1886 4V18C1886 20.2091 1884.21 22 1882 22H1868C1865.79 22 1864 20.2091 1864 18V4Z" fill="#202938"/>
<path d="M1845 24C1845 21.7909 1846.79 20 1849 20H1863C1865.21 20 1867 21.7909 1867 24V38C1867 40.2091 1865.21 42 1863 42H1849C1846.79 42 1845 40.2091 1845 38V24Z" fill="#202938"/>
<path d="M1865 17L1860.5 23.5L1865 26L1869.5 19.5L1865 17Z" fill="#202938"/>
<path d="M1905 4C1905 1.79086 1906.79 0 1909 0H1923C1925.21 0 1927 1.79086 1927 4V18C1927 20.2091 1925.21 22 1923 22H1909C1906.79 22 1905 20.2091 1905 18V4Z" fill="#FBD34C"/>
<path d="M1886 24C1886 21.7909 1887.79 20 1890 20H1904C1906.21 20 1908 21.7909 1908 24V38C1908 40.2091 1906.21 42 1904 42H1890C1887.79 42 1886 40.2091 1886 38V24Z" fill="#FBD34C"/>
<path d="M1906 17L1901.5 23.5L1906 26L1910.5 19.5L1906 17Z" fill="#FBD34C"/>
<path d="M1946 4C1946 1.79086 1947.79 0 1950 0H1964C1966.21 0 1968 1.79086 1968 4V18C1968 20.2091 1966.21 22 1964 22H1950C1947.79 22 1946 20.2091 1946 18V4Z" fill="#202938"/>
<path d="M1927 24C1927 21.7909 1928.79 20 1931 20H1945C1947.21 20 1949 21.7909 1949 24V38C1949 40.2091 1947.21 42 1945 42H1931C1928.79 42 1927 40.2091 1927 38V24Z" fill="#202938"/>
<path d="M1947 17L1942.5 23.5L1947 26L1951.5 19.5L1947 17Z" fill="#202938"/>
<path d="M1987 4C1987 1.79086 1988.79 0 1991 0H2005C2007.21 0 2009 1.79086 2009 4V18C2009 20.2091 2007.21 22 2005 22H1991C1988.79 22 1987 20.2091 1987 18V4Z" fill="#FBD34C"/>
<path d="M1968 24C1968 21.7909 1969.79 20 1972 20H1986C1988.21 20 1990 21.7909 1990 24V38C1990 40.2091 1988.21 42 1986 42H1972C1969.79 42 1968 40.2091 1968 38V24Z" fill="#FBD34C"/>
<path d="M1988 17L1983.5 23.5L1988 26L1992.5 19.5L1988 17Z" fill="#FBD34C"/>
<path d="M2028 4C2028 1.79086 2029.79 0 2032 0H2046C2048.21 0 2050 1.79086 2050 4V18C2050 20.2091 2048.21 22 2046 22H2032C2029.79 22 2028 20.2091 2028 18V4Z" fill="#202938"/>
<path d="M2009 24C2009 21.7909 2010.79 20 2013 20H2027C2029.21 20 2031 21.7909 2031 24V38C2031 40.2091 2029.21 42 2027 42H2013C2010.79 42 2009 40.2091 2009 38V24Z" fill="#202938"/>
<path d="M2029 17L2024.5 23.5L2029 26L2033.5 19.5L2029 17Z" fill="#202938"/>
<path d="M2069 4C2069 1.79086 2070.79 0 2073 0H2087C2089.21 0 2091 1.79086 2091 4V18C2091 20.2091 2089.21 22 2087 22H2073C2070.79 22 2069 20.2091 2069 18V4Z" fill="#FBD34C"/>
<path d="M2050 24C2050 21.7909 2051.79 20 2054 20H2068C2070.21 20 2072 21.7909 2072 24V38C2072 40.2091 2070.21 42 2068 42H2054C2051.79 42 2050 40.2091 2050 38V24Z" fill="#FBD34C"/>
<path d="M2070 17L2065.5 23.5L2070 26L2074.5 19.5L2070 17Z" fill="#FBD34C"/>
<path d="M2110 4C2110 1.79086 2111.79 0 2114 0H2128C2130.21 0 2132 1.79086 2132 4V18C2132 20.2091 2130.21 22 2128 22H2114C2111.79 22 2110 20.2091 2110 18V4Z" fill="#202938"/>
<path d="M2091 24C2091 21.7909 2092.79 20 2095 20H2109C2111.21 20 2113 21.7909 2113 24V38C2113 40.2091 2111.21 42 2109 42H2095C2092.79 42 2091 40.2091 2091 38V24Z" fill="#202938"/>
<path d="M2111 17L2106.5 23.5L2111 26L2115.5 19.5L2111 17Z" fill="#202938"/>
<path d="M2151 4C2151 1.79086 2152.79 0 2155 0H2169C2171.21 0 2173 1.79086 2173 4V18C2173 20.2091 2171.21 22 2169 22H2155C2152.79 22 2151 20.2091 2151 18V4Z" fill="#FBD34C"/>
<path d="M2132 24C2132 21.7909 2133.79 20 2136 20H2150C2152.21 20 2154 21.7909 2154 24V38C2154 40.2091 2152.21 42 2150 42H2136C2133.79 42 2132 40.2091 2132 38V24Z" fill="#FBD34C"/>
<path d="M2152 17L2147.5 23.5L2152 26L2156.5 19.5L2152 17Z" fill="#FBD34C"/>
<path d="M2192 4C2192 1.79086 2193.79 0 2196 0H2210C2212.21 0 2214 1.79086 2214 4V18C2214 20.2091 2212.21 22 2210 22H2196C2193.79 22 2192 20.2091 2192 18V4Z" fill="#202938"/>
<path d="M2173 24C2173 21.7909 2174.79 20 2177 20H2191C2193.21 20 2195 21.7909 2195 24V38C2195 40.2091 2193.21 42 2191 42H2177C2174.79 42 2173 40.2091 2173 38V24Z" fill="#202938"/>
<path d="M2193 17L2188.5 23.5L2193 26L2197.5 19.5L2193 17Z" fill="#202938"/>
<path d="M2233 4C2233 1.79086 2234.79 0 2237 0H2251C2253.21 0 2255 1.79086 2255 4V18C2255 20.2091 2253.21 22 2251 22H2237C2234.79 22 2233 20.2091 2233 18V4Z" fill="#FBD34C"/>
<path d="M2214 24C2214 21.7909 2215.79 20 2218 20H2232C2234.21 20 2236 21.7909 2236 24V38C2236 40.2091 2234.21 42 2232 42H2218C2215.79 42 2214 40.2091 2214 38V24Z" fill="#FBD34C"/>
<path d="M2234 17L2229.5 23.5L2234 26L2238.5 19.5L2234 17Z" fill="#FBD34C"/>
<path d="M2274 4C2274 1.79086 2275.79 0 2278 0H2292C2294.21 0 2296 1.79086 2296 4V18C2296 20.2091 2294.21 22 2292 22H2278C2275.79 22 2274 20.2091 2274 18V4Z" fill="#202938"/>
<path d="M2255 24C2255 21.7909 2256.79 20 2259 20H2273C2275.21 20 2277 21.7909 2277 24V38C2277 40.2091 2275.21 42 2273 42H2259C2256.79 42 2255 40.2091 2255 38V24Z" fill="#202938"/>
<path d="M2275 17L2270.5 23.5L2275 26L2279.5 19.5L2275 17Z" fill="#202938"/>
<path d="M2315 4C2315 1.79086 2316.79 0 2319 0H2333C2335.21 0 2337 1.79086 2337 4V18C2337 20.2091 2335.21 22 2333 22H2319C2316.79 22 2315 20.2091 2315 18V4Z" fill="#FBD34C"/>
<path d="M2296 24C2296 21.7909 2297.79 20 2300 20H2314C2316.21 20 2318 21.7909 2318 24V38C2318 40.2091 2316.21 42 2314 42H2300C2297.79 42 2296 40.2091 2296 38V24Z" fill="#FBD34C"/>
<path d="M2316 17L2311.5 23.5L2316 26L2320.5 19.5L2316 17Z" fill="#FBD34C"/>
<path d="M2356 4C2356 1.79086 2357.79 0 2360 0H2374C2376.21 0 2378 1.79086 2378 4V18C2378 20.2091 2376.21 22 2374 22H2360C2357.79 22 2356 20.2091 2356 18V4Z" fill="#202938"/>
<path d="M2337 24C2337 21.7909 2338.79 20 2341 20H2355C2357.21 20 2359 21.7909 2359 24V38C2359 40.2091 2357.21 42 2355 42H2341C2338.79 42 2337 40.2091 2337 38V24Z" fill="#202938"/>
<path d="M2357 17L2352.5 23.5L2357 26L2361.5 19.5L2357 17Z" fill="#202938"/>
<path d="M2397 4C2397 1.79086 2398.79 0 2401 0H2415C2417.21 0 2419 1.79086 2419 4V18C2419 20.2091 2417.21 22 2415 22H2401C2398.79 22 2397 20.2091 2397 18V4Z" fill="#FBD34C"/>
<path d="M2378 24C2378 21.7909 2379.79 20 2382 20H2396C2398.21 20 2400 21.7909 2400 24V38C2400 40.2091 2398.21 42 2396 42H2382C2379.79 42 2378 40.2091 2378 38V24Z" fill="#FBD34C"/>
<path d="M2398 17L2393.5 23.5L2398 26L2402.5 19.5L2398 17Z" fill="#FBD34C"/>
<path d="M2438 4C2438 1.79086 2439.79 0 2442 0H2456C2458.21 0 2460 1.79086 2460 4V18C2460 20.2091 2458.21 22 2456 22H2442C2439.79 22 2438 20.2091 2438 18V4Z" fill="#202938"/>
<path d="M2419 24C2419 21.7909 2420.79 20 2423 20H2437C2439.21 20 2441 21.7909 2441 24V38C2441 40.2091 2439.21 42 2437 42H2423C2420.79 42 2419 40.2091 2419 38V24Z" fill="#202938"/>
<path d="M2439 17L2434.5 23.5L2439 26L2443.5 19.5L2439 17Z" fill="#202938"/>
<path d="M2479 4C2479 1.79086 2480.79 0 2483 0H2497C2499.21 0 2501 1.79086 2501 4V18C2501 20.2091 2499.21 22 2497 22H2483C2480.79 22 2479 20.2091 2479 18V4Z" fill="#FBD34C"/>
<path d="M2460 24C2460 21.7909 2461.79 20 2464 20H2478C2480.21 20 2482 21.7909 2482 24V38C2482 40.2091 2480.21 42 2478 42H2464C2461.79 42 2460 40.2091 2460 38V24Z" fill="#FBD34C"/>
<path d="M2480 17L2475.5 23.5L2480 26L2484.5 19.5L2480 17Z" fill="#FBD34C"/>
<path d="M2520 4C2520 1.79086 2521.79 0 2524 0H2538C2540.21 0 2542 1.79086 2542 4V18C2542 20.2091 2540.21 22 2538 22H2524C2521.79 22 2520 20.2091 2520 18V4Z" fill="#202938"/>
<path d="M2501 24C2501 21.7909 2502.79 20 2505 20H2519C2521.21 20 2523 21.7909 2523 24V38C2523 40.2091 2521.21 42 2519 42H2505C2502.79 42 2501 40.2091 2501 38V24Z" fill="#202938"/>
<path d="M2521 17L2516.5 23.5L2521 26L2525.5 19.5L2521 17Z" fill="#202938"/>
<path d="M2561 4C2561 1.79086 2562.79 0 2565 0H2579C2581.21 0 2583 1.79086 2583 4V18C2583 20.2091 2581.21 22 2579 22H2565C2562.79 22 2561 20.2091 2561 18V4Z" fill="#FBD34C"/>
<path d="M2542 24C2542 21.7909 2543.79 20 2546 20H2560C2562.21 20 2564 21.7909 2564 24V38C2564 40.2091 2562.21 42 2560 42H2546C2543.79 42 2542 40.2091 2542 38V24Z" fill="#FBD34C"/>
<path d="M2562 17L2557.5 23.5L2562 26L2566.5 19.5L2562 17Z" fill="#FBD34C"/>
<path d="M2602 4C2602 1.79086 2603.79 0 2606 0H2620C2622.21 0 2624 1.79086 2624 4V18C2624 20.2091 2622.21 22 2620 22H2606C2603.79 22 2602 20.2091 2602 18V4Z" fill="#202938"/>
<path d="M2583 24C2583 21.7909 2584.79 20 2587 20H2601C2603.21 20 2605 21.7909 2605 24V38C2605 40.2091 2603.21 42 2601 42H2587C2584.79 42 2583 40.2091 2583 38V24Z" fill="#202938"/>
<path d="M2603 17L2598.5 23.5L2603 26L2607.5 19.5L2603 17Z" fill="#202938"/>
<path d="M2643 4C2643 1.79086 2644.79 0 2647 0H2661C2663.21 0 2665 1.79086 2665 4V18C2665 20.2091 2663.21 22 2661 22H2647C2644.79 22 2643 20.2091 2643 18V4Z" fill="#FBD34C"/>
<path d="M2624 24C2624 21.7909 2625.79 20 2628 20H2642C2644.21 20 2646 21.7909 2646 24V38C2646 40.2091 2644.21 42 2642 42H2628C2625.79 42 2624 40.2091 2624 38V24Z" fill="#FBD34C"/>
<path d="M2644 17L2639.5 23.5L2644 26L2648.5 19.5L2644 17Z" fill="#FBD34C"/>
<path d="M2684 4C2684 1.79086 2685.79 0 2688 0H2702C2704.21 0 2706 1.79086 2706 4V18C2706 20.2091 2704.21 22 2702 22H2688C2685.79 22 2684 20.2091 2684 18V4Z" fill="#202938"/>
<path d="M2665 24C2665 21.7909 2666.79 20 2669 20H2683C2685.21 20 2687 21.7909 2687 24V38C2687 40.2091 2685.21 42 2683 42H2669C2666.79 42 2665 40.2091 2665 38V24Z" fill="#202938"/>
<path d="M2685 17L2680.5 23.5L2685 26L2689.5 19.5L2685 17Z" fill="#202938"/>
<path d="M2725 4C2725 1.79086 2726.79 0 2729 0H2743C2745.21 0 2747 1.79086 2747 4V18C2747 20.2091 2745.21 22 2743 22H2729C2726.79 22 2725 20.2091 2725 18V4Z" fill="#FBD34C"/>
<path d="M2706 24C2706 21.7909 2707.79 20 2710 20H2724C2726.21 20 2728 21.7909 2728 24V38C2728 40.2091 2726.21 42 2724 42H2710C2707.79 42 2706 40.2091 2706 38V24Z" fill="#FBD34C"/>
<path d="M2726 17L2721.5 23.5L2726 26L2730.5 19.5L2726 17Z" fill="#FBD34C"/>
<path d="M2766 4C2766 1.79086 2767.79 0 2770 0H2784C2786.21 0 2788 1.79086 2788 4V18C2788 20.2091 2786.21 22 2784 22H2770C2767.79 22 2766 20.2091 2766 18V4Z" fill="#202938"/>
<path d="M2747 24C2747 21.7909 2748.79 20 2751 20H2765C2767.21 20 2769 21.7909 2769 24V38C2769 40.2091 2767.21 42 2765 42H2751C2748.79 42 2747 40.2091 2747 38V24Z" fill="#202938"/>
<path d="M2767 17L2762.5 23.5L2767 26L2771.5 19.5L2767 17Z" fill="#202938"/>
<path d="M2807 4C2807 1.79086 2808.79 0 2811 0H2825C2827.21 0 2829 1.79086 2829 4V18C2829 20.2091 2827.21 22 2825 22H2811C2808.79 22 2807 20.2091 2807 18V4Z" fill="#FBD34C"/>
<path d="M2788 24C2788 21.7909 2789.79 20 2792 20H2806C2808.21 20 2810 21.7909 2810 24V38C2810 40.2091 2808.21 42 2806 42H2792C2789.79 42 2788 40.2091 2788 38V24Z" fill="#FBD34C"/>
<path d="M2808 17L2803.5 23.5L2808 26L2812.5 19.5L2808 17Z" fill="#FBD34C"/>
<path d="M2848 4C2848 1.79086 2849.79 0 2852 0H2866C2868.21 0 2870 1.79086 2870 4V18C2870 20.2091 2868.21 22 2866 22H2852C2849.79 22 2848 20.2091 2848 18V4Z" fill="#202938"/>
<path d="M2829 24C2829 21.7909 2830.79 20 2833 20H2847C2849.21 20 2851 21.7909 2851 24V38C2851 40.2091 2849.21 42 2847 42H2833C2830.79 42 2829 40.2091 2829 38V24Z" fill="#202938"/>
<path d="M2849 17L2844.5 23.5L2849 26L2853.5 19.5L2849 17Z" fill="#202938"/>
<path d="M2889 4C2889 1.79086 2890.79 0 2893 0H2907C2909.21 0 2911 1.79086 2911 4V18C2911 20.2091 2909.21 22 2907 22H2893C2890.79 22 2889 20.2091 2889 18V4Z" fill="#FBD34C"/>
<path d="M2870 24C2870 21.7909 2871.79 20 2874 20H2888C2890.21 20 2892 21.7909 2892 24V38C2892 40.2091 2890.21 42 2888 42H2874C2871.79 42 2870 40.2091 2870 38V24Z" fill="#FBD34C"/>
<path d="M2890 17L2885.5 23.5L2890 26L2894.5 19.5L2890 17Z" fill="#FBD34C"/>
<path d="M2930 4C2930 1.79086 2931.79 0 2934 0H2948C2950.21 0 2952 1.79086 2952 4V18C2952 20.2091 2950.21 22 2948 22H2934C2931.79 22 2930 20.2091 2930 18V4Z" fill="#202938"/>
<path d="M2911 24C2911 21.7909 2912.79 20 2915 20H2929C2931.21 20 2933 21.7909 2933 24V38C2933 40.2091 2931.21 42 2929 42H2915C2912.79 42 2911 40.2091 2911 38V24Z" fill="#202938"/>
<path d="M2931 17L2926.5 23.5L2931 26L2935.5 19.5L2931 17Z" fill="#202938"/>
<path d="M2971 4C2971 1.79086 2972.79 0 2975 0H2989C2991.21 0 2993 1.79086 2993 4V18C2993 20.2091 2991.21 22 2989 22H2975C2972.79 22 2971 20.2091 2971 18V4Z" fill="#FBD34C"/>
<path d="M2952 24C2952 21.7909 2953.79 20 2956 20H2970C2972.21 20 2974 21.7909 2974 24V38C2974 40.2091 2972.21 42 2970 42H2956C2953.79 42 2952 40.2091 2952 38V24Z" fill="#FBD34C"/>
<path d="M2972 17L2967.5 23.5L2972 26L2976.5 19.5L2972 17Z" fill="#FBD34C"/>
<path d="M3012 4C3012 1.79086 3013.79 0 3016 0H3030C3032.21 0 3034 1.79086 3034 4V18C3034 20.2091 3032.21 22 3030 22H3016C3013.79 22 3012 20.2091 3012 18V4Z" fill="#202938"/>
<path d="M2993 24C2993 21.7909 2994.79 20 2997 20H3011C3013.21 20 3015 21.7909 3015 24V38C3015 40.2091 3013.21 42 3011 42H2997C2994.79 42 2993 40.2091 2993 38V24Z" fill="#202938"/>
<path d="M3013 17L3008.5 23.5L3013 26L3017.5 19.5L3013 17Z" fill="#202938"/>
<path d="M3053 4C3053 1.79086 3054.79 0 3057 0H3071C3073.21 0 3075 1.79086 3075 4V18C3075 20.2091 3073.21 22 3071 22H3057C3054.79 22 3053 20.2091 3053 18V4Z" fill="#FBD34C"/>
<path d="M3034 24C3034 21.7909 3035.79 20 3038 20H3052C3054.21 20 3056 21.7909 3056 24V38C3056 40.2091 3054.21 42 3052 42H3038C3035.79 42 3034 40.2091 3034 38V24Z" fill="#FBD34C"/>
<path d="M3054 17L3049.5 23.5L3054 26L3058.5 19.5L3054 17Z" fill="#FBD34C"/>
<path d="M3094 4C3094 1.79086 3095.79 0 3098 0H3112C3114.21 0 3116 1.79086 3116 4V18C3116 20.2091 3114.21 22 3112 22H3098C3095.79 22 3094 20.2091 3094 18V4Z" fill="#202938"/>
<path d="M3075 24C3075 21.7909 3076.79 20 3079 20H3093C3095.21 20 3097 21.7909 3097 24V38C3097 40.2091 3095.21 42 3093 42H3079C3076.79 42 3075 40.2091 3075 38V24Z" fill="#202938"/>
<path d="M3095 17L3090.5 23.5L3095 26L3099.5 19.5L3095 17Z" fill="#202938"/>
<path d="M3135 4C3135 1.79086 3136.79 0 3139 0H3153C3155.21 0 3157 1.79086 3157 4V18C3157 20.2091 3155.21 22 3153 22H3139C3136.79 22 3135 20.2091 3135 18V4Z" fill="#FBD34C"/>
<path d="M3116 24C3116 21.7909 3117.79 20 3120 20H3134C3136.21 20 3138 21.7909 3138 24V38C3138 40.2091 3136.21 42 3134 42H3120C3117.79 42 3116 40.2091 3116 38V24Z" fill="#FBD34C"/>
<path d="M3136 17L3131.5 23.5L3136 26L3140.5 19.5L3136 17Z" fill="#FBD34C"/>
<path d="M3176 4C3176 1.79086 3177.79 0 3180 0H3194C3196.21 0 3198 1.79086 3198 4V18C3198 20.2091 3196.21 22 3194 22H3180C3177.79 22 3176 20.2091 3176 18V4Z" fill="#202938"/>
<path d="M3157 24C3157 21.7909 3158.79 20 3161 20H3175C3177.21 20 3179 21.7909 3179 24V38C3179 40.2091 3177.21 42 3175 42H3161C3158.79 42 3157 40.2091 3157 38V24Z" fill="#202938"/>
<path d="M3177 17L3172.5 23.5L3177 26L3181.5 19.5L3177 17Z" fill="#202938"/>
<path d="M3217 4C3217 1.79086 3218.79 0 3221 0H3235C3237.21 0 3239 1.79086 3239 4V18C3239 20.2091 3237.21 22 3235 22H3221C3218.79 22 3217 20.2091 3217 18V4Z" fill="#FBD34C"/>
<path d="M3198 24C3198 21.7909 3199.79 20 3202 20H3216C3218.21 20 3220 21.7909 3220 24V38C3220 40.2091 3218.21 42 3216 42H3202C3199.79 42 3198 40.2091 3198 38V24Z" fill="#FBD34C"/>
<path d="M3218 17L3213.5 23.5L3218 26L3222.5 19.5L3218 17Z" fill="#FBD34C"/>
<path d="M3258 4C3258 1.79086 3259.79 0 3262 0H3276C3278.21 0 3280 1.79086 3280 4V18C3280 20.2091 3278.21 22 3276 22H3262C3259.79 22 3258 20.2091 3258 18V4Z" fill="#202938"/>
<path d="M3239 24C3239 21.7909 3240.79 20 3243 20H3257C3259.21 20 3261 21.7909 3261 24V38C3261 40.2091 3259.21 42 3257 42H3243C3240.79 42 3239 40.2091 3239 38V24Z" fill="#202938"/>
<path d="M3259 17L3254.5 23.5L3259 26L3263.5 19.5L3259 17Z" fill="#202938"/>
<path d="M3299 4C3299 1.79086 3300.79 0 3303 0H3317C3319.21 0 3321 1.79086 3321 4V18C3321 20.2091 3319.21 22 3317 22H3303C3300.79 22 3299 20.2091 3299 18V4Z" fill="#FBD34C"/>
<path d="M3280 24C3280 21.7909 3281.79 20 3284 20H3298C3300.21 20 3302 21.7909 3302 24V38C3302 40.2091 3300.21 42 3298 42H3284C3281.79 42 3280 40.2091 3280 38V24Z" fill="#FBD34C"/>
<path d="M3300 17L3295.5 23.5L3300 26L3304.5 19.5L3300 17Z" fill="#FBD34C"/>
<path d="M3340 4C3340 1.79086 3341.79 0 3344 0H3358C3360.21 0 3362 1.79086 3362 4V18C3362 20.2091 3360.21 22 3358 22H3344C3341.79 22 3340 20.2091 3340 18V4Z" fill="#202938"/>
<path d="M3321 24C3321 21.7909 3322.79 20 3325 20H3339C3341.21 20 3343 21.7909 3343 24V38C3343 40.2091 3341.21 42 3339 42H3325C3322.79 42 3321 40.2091 3321 38V24Z" fill="#202938"/>
<path d="M3341 17L3336.5 23.5L3341 26L3345.5 19.5L3341 17Z" fill="#202938"/>
<path d="M3381 4C3381 1.79086 3382.79 0 3385 0H3399C3401.21 0 3403 1.79086 3403 4V18C3403 20.2091 3401.21 22 3399 22H3385C3382.79 22 3381 20.2091 3381 18V4Z" fill="#FBD34C"/>
<path d="M3362 24C3362 21.7909 3363.79 20 3366 20H3380C3382.21 20 3384 21.7909 3384 24V38C3384 40.2091 3382.21 42 3380 42H3366C3363.79 42 3362 40.2091 3362 38V24Z" fill="#FBD34C"/>
<path d="M3382 17L3377.5 23.5L3382 26L3386.5 19.5L3382 17Z" fill="#FBD34C"/>
<path d="M3422 4C3422 1.79086 3423.79 0 3426 0H3440C3442.21 0 3444 1.79086 3444 4V18C3444 20.2091 3442.21 22 3440 22H3426C3423.79 22 3422 20.2091 3422 18V4Z" fill="#202938"/>
<path d="M3403 24C3403 21.7909 3404.79 20 3407 20H3421C3423.21 20 3425 21.7909 3425 24V38C3425 40.2091 3423.21 42 3421 42H3407C3404.79 42 3403 40.2091 3403 38V24Z" fill="#202938"/>
<path d="M3423 17L3418.5 23.5L3423 26L3427.5 19.5L3423 17Z" fill="#202938"/>
<path d="M3463 4C3463 1.79086 3464.79 0 3467 0H3481C3483.21 0 3485 1.79086 3485 4V18C3485 20.2091 3483.21 22 3481 22H3467C3464.79 22 3463 20.2091 3463 18V4Z" fill="#FBD34C"/>
<path d="M3444 24C3444 21.7909 3445.79 20 3448 20H3462C3464.21 20 3466 21.7909 3466 24V38C3466 40.2091 3464.21 42 3462 42H3448C3445.79 42 3444 40.2091 3444 38V24Z" fill="#FBD34C"/>
<path d="M3464 17L3459.5 23.5L3464 26L3468.5 19.5L3464 17Z" fill="#FBD34C"/>
<path d="M3504 4C3504 1.79086 3505.79 0 3508 0H3522C3524.21 0 3526 1.79086 3526 4V18C3526 20.2091 3524.21 22 3522 22H3508C3505.79 22 3504 20.2091 3504 18V4Z" fill="#202938"/>
<path d="M3485 24C3485 21.7909 3486.79 20 3489 20H3503C3505.21 20 3507 21.7909 3507 24V38C3507 40.2091 3505.21 42 3503 42H3489C3486.79 42 3485 40.2091 3485 38V24Z" fill="#202938"/>
<path d="M3505 17L3500.5 23.5L3505 26L3509.5 19.5L3505 17Z" fill="#202938"/>
<path d="M3545 4C3545 1.79086 3546.79 0 3549 0H3563C3565.21 0 3567 1.79086 3567 4V18C3567 20.2091 3565.21 22 3563 22H3549C3546.79 22 3545 20.2091 3545 18V4Z" fill="#FBD34C"/>
<path d="M3526 24C3526 21.7909 3527.79 20 3530 20H3544C3546.21 20 3548 21.7909 3548 24V38C3548 40.2091 3546.21 42 3544 42H3530C3527.79 42 3526 40.2091 3526 38V24Z" fill="#FBD34C"/>
<path d="M3546 17L3541.5 23.5L3546 26L3550.5 19.5L3546 17Z" fill="#FBD34C"/>
<path d="M3586 4C3586 1.79086 3587.79 0 3590 0H3604C3606.21 0 3608 1.79086 3608 4V18C3608 20.2091 3606.21 22 3604 22H3590C3587.79 22 3586 20.2091 3586 18V4Z" fill="#202938"/>
<path d="M3567 24C3567 21.7909 3568.79 20 3571 20H3585C3587.21 20 3589 21.7909 3589 24V38C3589 40.2091 3587.21 42 3585 42H3571C3568.79 42 3567 40.2091 3567 38V24Z" fill="#202938"/>
<path d="M3587 17L3582.5 23.5L3587 26L3591.5 19.5L3587 17Z" fill="#202938"/>
</svg>
